#!OML:ASF H:\Terrain\Patient Classification 1\Walking\liu\liu.ASF
:FULLY-SPECIFIED
:DEGREES
113
root 9.36931 16.2101 -21.5747 4.06099 3.11672 4.58395
lowerback -8.13853 -3.08807 -5.56772
upperback -0.879779 -3.70638 2.31703
thorax 4.15718 -1.95587 5.11171
lowerneck -19.5356 -5.12861 -13.1484
upperneck 21.3575 -5.83015 10.6143
head 10.8299 -2.5075 5.1715
rclavicle -1.6114e-014 1.59028e-015
rhumerus -46.0738 9.63676 -84.6678
rradius 35.5883
rwrist -19.4649
rhand -29.9584 -24.3669
rfingers 7.12502
rthumb -3.27732 -54.3215
lclavicle -1.6114e-014 1.59028e-015
lhumerus -24.3521 -26.4816 92.1033
lradius 42.3051
lwrist 13.0008
lhand -13.681 -25.5595
lfingers 7.12502
lthumb 12.4367 4.05052
rfemur -39.8979 11.0385 8.13608
rtibia 29.2311
rfoot -21.9674 -8.0018
rtoes -19.0541
lfemur 13.1637 0.679085 -28.9705
ltibia 0
lfoot -13.9025 2.84213
ltoes -3.08281
114
root 9.36174 16.1967 -21.441 4.18115 3.58017 4.72181
lowerback -8.11138 -3.18791 -5.72481
upperback -1.00093 -3.82748 2.30926
thorax 4.04096 -2.01212 5.18071
lowerneck -19.4427 -5.13981 -13.3222
upperneck 21.4702 -5.86297 10.8067
head 10.8707 -2.51834 5.27319
rclavicle 2.82274e-014 -7.95139e-015
rhumerus -46.4192 9.4902 -84.4607
rradius 35.5628
rwrist -19.3854
rhand -29.5021 -23.9384
rfingers 7.12502
rthumb -2.83658 -53.8993
lclavicle 2.82274e-014 -7.95139e-015
lhumerus -24.9204 -26.652 92.621
lradius 42.4672
lwrist 13.0401
lhand -13.0814 -25.5228
lfingers 7.12502
lthumb 13.0148 4.05123
rfemur -40.3119 11.6365 7.28924
rtibia 28.7218
rfoot -22.513 -8.55582
rtoes -18.6377
lfemur 13.5511 0.561562 -28.986
ltibia 9.54166e-015
lfoot -14.0326 2.70928
ltoes -3.37978
115
root 9.35402 16.1749 -21.3024 4.23169 4.03138 4.63309
lowerback -8.14713 -3.307 -5.6302
upperback -0.9908 -3.99267 2.31486
thorax 4.08787 -2.09412 5.10896
lowerneck -19.3289 -5.17902 -13.265
upperneck 21.3105 -5.95092 10.8474
head 10.8023 -2.55068 5.25973
rclavicle 1.08213e-014 3.18055e-015
rhumerus -46.3924 9.13805 -84.2543
rradius 35.2817
rwrist -19.1783
rhand -29.3331 -23.3051
rfingers 7.12502
rthumb -2.67343 -53.2681
lclavicle 1.08213e-014 3.18055e-015
lhumerus -25.3625 -26.7335 92.9123
lradius 42.6137
lwrist 13.0172
lhand -12.7579 -25.2959
lfingers 7.12502
lthumb 13.3266 4.25797
rfemur -40.5964 12.2383 6.76713
rtibia 28.2368
rfoot -23.451 -9.44436
rtoes -19.0088
lfemur 14.0368 0.472366 -28.7253
ltibia 1.59028e-014
lfoot -14.3807 2.42559
ltoes -2.85137
116
root 9.34289 16.1489 -21.1626 4.38529 4.16202 4.7278
lowerback -8.34366 -3.36891 -5.7207
upperback -0.962546 -4.05228 2.23126
thorax 4.2355 -2.12888 5.05337
lowerneck -19.4385 -5.1237 -13.1333
upperneck 21.336 -5.93786 10.9869
head 10.8306 -2.51484 5.2931
rclavicle 3.72349e-014 -1.59028e-015
rhumerus -46.3457 8.85516 -84.1773
rradius 35.0807
rwrist -19.0025
rhand -29.5065 -23.1597
rfingers 7.12502
rthumb -2.84088 -53.1205
lclavicle 3.72349e-014 -1.59028e-015
lhumerus -25.7098 -26.7798 93.112
lradius 42.574
lwrist 12.9547
lhand -12.851 -25.3971
lfingers 7.12502
lthumb 13.2368 4.16257
rfemur -41.0416 12.3666 6.40912
rtibia 27.8041
rfoot -23.6874 -9.98682
rtoes -19.573
lfemur 14.4272 0.67068 -28.6701
ltibia 2.54444e-014
lfoot -14.81 2.07758
ltoes -2.63351
117
root 9.32861 16.1252 -21.0291 4.54325 4.37563 4.95444
lowerback -8.34079 -3.34202 -5.92632
upperback -1.04176 -3.99317 2.10881
thorax 4.14797 -2.09706 5.05098
lowerneck -19.2566 -5.08522 -13.2137
upperneck 21.2332 -5.95157 11.2829
head 10.7729 -2.49808 5.41448
rclavicle -3.13086e-015 7.95139e-016
rhumerus -46.5993 8.37889 -83.9652
rradius 34.9547
rwrist -18.9181
rhand -29.4992 -22.7689
rfingers 7.12502
rthumb -2.83384 -52.7298
lclavicle -3.13086e-015 7.95139e-016
lhumerus -26.1046 -26.9991 93.5921
lradius 42.3865
lwrist 12.7634
lhand -12.9092 -25.49
lfingers 7.12502
lthumb 13.1808 4.07331
rfemur -41.4575 12.3746 5.89898
rtibia 27.4662
rfoot -23.8374 -10.3723
rtoes -19.5941
lfemur 14.8442 0.777163 -28.7418
ltibia -5.08889e-014
lfoot -15.1629 1.71961
ltoes -2.52572
118
root 9.31557 16.1071 -20.8934 4.46986 4.85527 5.21428
lowerback -8.02047 -3.39933 -6.19524
upperback -1.08243 -4.06292 2.05149
thorax 3.95016 -2.12895 5.15019
lowerneck -19.1768 -5.13921 -13.4229
upperneck 21.2572 -6.01591 11.438
head 10.7887 -2.5295 5.50024
rclavicle 8.08805e-015 -1.59028e-015
rhumerus -46.7002 8.01763 -83.7668
rradius 34.5632
rwrist -18.4978
rhand -29.689 -22.5044
rfingers 7.12502
rthumb -3.01715 -52.4628
lclavicle 8.08805e-015 -1.59028e-015
lhumerus -26.7466 -27.1706 94.186
lradius 42.4604
lwrist 12.5387
lhand -12.5017 -25.1868
lfingers 7.12502
lthumb 13.5735 4.35071
rfemur -41.4828 12.4924 5.27193
rtibia 27.2163
rfoot -24.302 -10.9099
rtoes -19.23
lfemur 15.518 0.651454 -28.8088
ltibia -3.49861e-014
lfoot -15.347 1.3328
ltoes -2.0675
119
root 9.30569 16.0988 -20.7507 4.51715 5.26524 5.44562
lowerback -7.99224 -3.54431 -6.4303
upperback -1.07688 -4.23746 2.05527
thorax 3.98181 -2.2206 5.2648
lowerneck -19.2707 -5.24835 -13.7422
upperneck 21.3729 -6.09579 11.5455
head 10.8765 -2.57846 5.58717
rclavicle -1.14053e-014 1.82882e-014
rhumerus -46.7407 8.20984 -83.8523
rradius 34.3221
rwrist -18.0522
rhand -30.2765 -23.2582
rfingers 7.12502
rthumb -3.58443 -53.2078
lclavicle -1.14053e-014 1.82882e-014
lhumerus -27.4796 -27.2462 94.6759
lradius 42.671
lwrist 12.4201
lhand -12.1424 -24.8875
lfingers 7.12502
lthumb 13.9198 4.62655
rfemur -41.5593 12.4442 4.79145
rtibia 26.9934
rfoot -24.4239 -11.3281
rtoes -18.6285
lfemur 16.0289 0.579091 -28.8655
ltibia 2.54444e-014
lfoot -15.3724 1.13752
ltoes -2.84177
120
root 9.29284 16.0903 -20.6074 4.78876 5.47989 5.3639
lowerback -8.25081 -3.57063 -6.33837
upperback -1.14074 -4.26727 2.11362
thorax 4.06139 -2.23478 5.25864
lowerneck -19.1245 -5.32024 -13.9443
upperneck 21.2598 -6.1653 11.6195
head 10.8277 -2.6218 5.6351
rclavicle -2.21521e-014 1.03368e-014
rhumerus -47.072 8.11821 -83.6539
rradius 34.4393
rwrist -18.0382
rhand -30.0397 -23.4577
rfingers 7.12502
rthumb -3.35576 -53.411
lclavicle -2.21521e-014 1.03368e-014
lhumerus -27.9737 -27.2894 95.1957
lradius 42.4484
lwrist 12.2572
lhand -11.9757 -24.6238
lfingers 7.12502
lthumb 14.0805 4.87919
rfemur -41.9287 12.5775 4.60516
rtibia 26.7773
rfoot -24.1625 -12.2158
rtoes -20.1174
lfemur 16.2614 0.675475 -28.5789
ltibia -5.08889e-014
lfoot -15.4652 0.927601
ltoes -3.68518
121
root 9.27614 16.0741 -20.4655 4.93934 5.73716 5.17897
lowerback -8.32613 -3.61604 -6.1996
upperback -1.13543 -4.33775 2.16786
thorax 4.11306 -2.26971 5.22353
lowerneck -19.2332 -5.29399 -13.7304
upperneck 21.2675 -6.14636 11.492
head 10.8361 -2.60661 5.55268
rclavicle -4.06887e-014 -1.11319e-014
rhumerus -47.0884 7.57466 -83.1631
rradius 34.3516
rwrist -18.181
rhand -29.2374 -22.8079
rfingers 7.12502
rthumb -2.58101 -52.772
lclavicle -4.06887e-014 -1.11319e-014
lhumerus -28.163 -26.9871 95.4942
lradius 41.9478
lwrist 11.906
lhand -11.5818 -24.1969
lfingers 7.12502
lthumb 14.4599 5.27929
rfemur -42.1218 12.6405 4.64343
rtibia 26.5158
rfoot -25.0874 -13.4816
rtoes -22.0868
lfemur 16.5939 0.746996 -28.136
ltibia 9.54166e-015
lfoot -15.5726 0.611905
ltoes -4.08932
122
root 9.25886 16.0483 -20.3251 5.01283 6.0609 5.27032
lowerback -8.24039 -3.73813 -6.32499
upperback -1.11177 -4.49245 2.12682
thorax 4.11798 -2.34905 5.23335
lowerneck -19.4644 -5.28826 -13.3583
upperneck 21.3812 -6.15609 11.2011
head 10.8995 -2.60753 5.37955
rclavicle 3.85145e-014 7.95139e-015
rhumerus -46.9422 7.40093 -83.1554
rradius 34.0679
rwrist -18.7637
rhand -29.5264 -22.4459
rfingers 7.12502
rthumb -2.8601 -52.4065
lclavicle 3.85145e-014 7.95139e-015
lhumerus -28.4808 -26.5426 95.6794
lradius 41.5412
lwrist 11.4245
lhand -11.0869 -24.132
lfingers 7.12502
lthumb 14.9368 5.30939
rfemur -42.1161 12.3139 4.58336
rtibia 26.1976
rfoot -24.9047 -13.6919
rtoes -22.3876
lfemur 17.0108 0.748995 -27.9874
ltibia 8.26944e-014
lfoot -15.4701 0.386955
ltoes -4.44116
